/* XPM */
static char *magick[] = {
/* columns rows colors chars-per-pixel */
"20 20 4 1",
"  c black",
". c #808080",
"X c #C0C0C0",
"o c None",
/* pixels */
"oooooooooooooooooooo",
"oooooooooooooooooooo",
"oooooooooooooooooooo",
"oooooooooooooooooooo",
"ooooooooX   .ooooooo",
"oooooooX     .oooooo",
"ooooooo. .oX  oooooo",
"ooooooo. Xoo  oooooo",
"oooooooooooX .oooooo",
"ooooooooooX  Xoooooo",
"oooooooooX  Xooooooo",
"oooooooooX  Xooooooo",
"ooooooooX  Xoooooooo",
"oooooooX  Xooooooooo",
"ooooooo.      oooooo",
"ooooooo       oooooo",
"oooooooooooooooooooo",
"oooooooooooooooooooo",
"oooooooooooooooooooo",
"oooooooooooooooooooo"
};
