/* XPM */
static char *magick[] = {
/* columns rows colors chars-per-pixel */
"20 20 4 1",
"  c black",
". c #808080",
"X c #C0C0C0",
"o c None",
/* pixels */
"oooooooooooooooooooo",
"oooooooooooooooooooo",
"oooooooooooooooooooo",
"oooooooooooooooooooo",
"ooooooooX.  .ooooooo",
"oooooooX     .oooooo",
"ooooooo. .oX .oooooo",
"ooooooo  Xoooooooooo",
"ooooooo  .  .Xoooooo",
"ooooooo      .oooooo",
"ooooooo  XoX  oooooo",
"ooooooo  XoX  oooooo",
"ooooooo  ooo  oooooo",
"ooooooo. .oX  oooooo",
"oooooooX     .oooooo",
"ooooooooX   .ooooooo",
"oooooooooooooooooooo",
"oooooooooooooooooooo",
"oooooooooooooooooooo",
"oooooooooooooooooooo"
};
