/* XPM */
static char *magick[] = {
/* columns rows colors chars-per-pixel */
"20 20 3 1",
"  c black",
". c #008080",
"X c None",
/* pixels */
"XXXXXXXXXXXXXXXXXXXX",
"XXXXXXXXXXXXXXXXXXXX",
"XXXXXXXXXXXXXXXXXXXX",
"XXXXXXXXXXXXXXXXXXXX",
"XXXXXXXXXXXXXXXXXXXX",
"XXXXXXXX     XXXXXXX",
"XXXXXXXX ... XXXXXXX",
"XXXXXXXX ... XXXXXXX",
"XXXXXXXX ... XXXXXXX",
"XXXXX    ...    XXXX",
"XXXXXX ....... XXXXX",
"XXXXXXX ..... XXXXXX",
"XXXXXXX ..... XXXXXX",
"XXXXXXXX ... XXXXXXX",
"XXXXXXXXX . XXXXXXXX",
"XXXXXXXXXX XXXXXXXXX",
"XXXXXXXXXXXXXXXXXXXX",
"XXXXXXXXXXXXXXXXXXXX",
"XXXXXXXXXXXXXXXXXXXX",
"XXXXXXXXXXXXXXXXXXXX"
};
