/* XPM */
static char *magick[] = {
/* columns rows colors chars-per-pixel */
"20 20 3 1",
"  c black",
". c #808080",
"X c None",
/* pixels */
"XXXXXXXXXXXXXXXXXXXX",
"XXXXXXXXXXXXXXXXXXXX",
"XXXXXXXXXXXXXXXXXXXX",
"XXXXXXXXXXXXXXXXXXXX",
"XXX               XX",
"XXX               XX",
"XXXXXXXXXXXXXXXXXXXX",
"XXXXXX............XX",
"XXXXXXXXXXXXXXXXXXXX",
"XXXXXXXXXXXXXXXXXXXX",
"XXXXXXXXXXXXXXXXXXXX",
"XXXXXXXXXXXXXXXXXXXX",
"XXX               XX",
"XXX               XX",
"XXXXXXXXXXXXXXXXXXXX",
"XXXXXX............XX",
"XXXXXXXXXXXXXXXXXXXX",
"XXXXXXXXXXXXXXXXXXXX",
"XXXXXXXXXXXXXXXXXXXX",
"XXXXXXXXXXXXXXXXXXXX"
};
