/* XPM */
static char *magick[] = {
/* columns rows colors chars-per-pixel */
"20 20 3 1",
"  c black",
". c #008080",
"X c None",
/* pixels */
"XXXXXXXXXXXXXXXXXXXX",
"XXXXXXXXXXXXXXXXXXXX",
"XXXXXXXXXXXXXXXXXXXX",
"XXXXXXXXXXXXXXXXXXXX",
"XXXXXXXXXX XXXXXXXXX",
"XXXXXXXXX  XXXXXXXXX",
"XXXXXXXX . XXXXXXXXX",
"XXXXXXX ..     XXXXX",
"XXXXXX ....... XXXXX",
"XXXXX ........ XXXXX",
"XXXXXX ....... XXXXX",
"XXXXXX ....... XXXXX",
"XXXXXXX ..     XXXXX",
"XXXXXXXX . XXXXXXXXX",
"XXXXXXXXX  XXXXXXXXX",
"XXXXXXXXXX XXXXXXXXX",
"XXXXXXXXXXXXXXXXXXXX",
"XXXXXXXXXXXXXXXXXXXX",
"XXXXXXXXXXXXXXXXXXXX",
"XXXXXXXXXXXXXXXXXXXX"
};
