/* XPM */
static char *magick[] = {
/* columns rows colors chars-per-pixel */
"20 20 3 1",
"  c black",
". c #008080",
"X c None",
/* pixels */
"XXXXXXXXXXXXXXXXXXXX",
"XXXXXXXXXXXXXXXXXXXX",
"XXXXXXXXXXXXXXXXXXXX",
"XXXXXXXXXXXXXXXXXXXX",
"XXXXXXXXX XXXXXXXXXX",
"XXXXXXXXX  XXXXXXXXX",
"XXXXXXXXX . XXXXXXXX",
"XXXXX     .. XXXXXXX",
"XXXXX ....... XXXXXX",
"XXXXX ........ XXXXX",
"XXXXX ....... XXXXXX",
"XXXXX ....... XXXXXX",
"XXXXX     .. XXXXXXX",
"XXXXXXXXX . XXXXXXXX",
"XXXXXXXXX  XXXXXXXXX",
"XXXXXXXXX XXXXXXXXXX",
"XXXXXXXXXXXXXXXXXXXX",
"XXXXXXXXXXXXXXXXXXXX",
"XXXXXXXXXXXXXXXXXXXX",
"XXXXXXXXXXXXXXXXXXXX"
};
