/* XPM */
static char *magick[] = {
/* columns rows colors chars-per-pixel */
"20 20 3 1",
"  c black",
". c #008080",
"X c None",
/* pixels */
"XXXXXXXXXXXXXXXXXXXX",
"XXXXXXXXXXXXXXXXXXXX",
"XXXXXXXXXXXXXXXXXXXX",
"XXXXXXXXXXXXXXXXXXXX",
"XXXXXXXXXXXXXXXXXXXX",
"XXXXXXXXXX XXXXXXXXX",
"XXXXXXXXX . XXXXXXXX",
"XXXXXXXX ... XXXXXXX",
"XXXXXXX ..... XXXXXX",
"XXXXXX ....... XXXXX",
"XXXXX    ...    XXXX",
"XXXXXXXX ... XXXXXXX",
"XXXXXXXX ... XXXXXXX",
"XXXXXXXX ... XXXXXXX",
"XXXXXXXX ... XXXXXXX",
"XXXXXXXX     XXXXXXX",
"XXXXXXXXXXXXXXXXXXXX",
"XXXXXXXXXXXXXXXXXXXX",
"XXXXXXXXXXXXXXXXXXXX",
"XXXXXXXXXXXXXXXXXXXX"
};
